<?xml version="1.0" standalone="no"?>
<!DOCTYPE svg PUBLIC "-//W3C//DTD SVG 20010904//EN"
 "http://www.w3.org/TR/2001/REC-SVG-20010904/DTD/svg10.dtd">
<svg version="1.0" xmlns="http://www.w3.org/2000/svg"
 width="1203.000000pt" height="435.000000pt" viewBox="0 0 1203.000000 435.000000"
 preserveAspectRatio="xMidYMid meet">

<g transform="translate(0.000000,435.000000) scale(0.100000,-0.100000)"
fill="#000000" stroke="none">
<path d="M6607 4304 c-14 -14 -29 -39 -32 -55 -7 -29 -7 -29 -81 -29 l-74 0 0
45 0 45 -90 0 -90 0 0 -33 0 -33 -82 1 -83 0 -6 -95 c-11 -187 -97 -268 -306
-286 l-73 -7 0 -80 0 -80 98 6 c169 10 289 63 363 161 33 44 73 138 82 196 2
14 5 -39 6 -118 1 -159 8 -185 63 -224 32 -22 38 -23 253 -22 l220 1 3 76 3
77 -181 0 -180 0 0 98 0 97 162 -2 c90 -1 166 -2 171 -2 4 -1 7 -21 7 -46 l0
-45 285 0 285 0 0 95 0 95 -270 0 -270 0 0 33 c0 50 -19 107 -45 133 -35 35
-103 34 -138 -2z m98 -74 c0 -20 -6 -26 -26 -28 -30 -4 -46 22 -28 45 20 23
54 12 54 -17z"/>
<path d="M5120 4170 l0 -150 80 0 80 0 0 65 0 65 106 0 107 0 -7 -57 c-18
-152 -107 -227 -281 -235 l-60 -3 -3 -82 -3 -83 64 0 c68 0 196 28 248 55 46
24 117 93 145 140 27 47 64 180 64 232 l0 33 175 0 175 0 0 85 0 85 -445 0
-445 0 0 -150z"/>
<path d="M7347 4274 c-4 -4 -7 -40 -7 -81 l0 -73 130 0 c148 0 150 -2 109 -81
-48 -96 -152 -177 -230 -182 l-44 -2 -3 -78 c-3 -93 -1 -95 99 -78 89 14 146
42 209 98 28 25 50 41 50 36 0 -25 79 -98 134 -124 l61 -29 3 79 3 79 -62 61
c-50 51 -60 66 -54 84 22 70 35 159 33 221 l-3 71 -210 3 c-116 2 -214 0 -218
-4z"/>
<path d="M8030 4094 c-63 -27 -89 -108 -55 -174 33 -64 -91 -60 1745 -60 1836
0 1712 -4 1745 60 32 63 11 139 -48 172 -31 17 -3346 19 -3387 2z m3374 -70
c24 -23 20 -70 -6 -88 -20 -14 -196 -16 -1678 -16 -1824 0 -1700 -4 -1700 60
0 65 -138 60 1700 60 1504 0 1670 -2 1684 -16z"/>
<path d="M625 4075 c-23 -19 -42 -24 -83 -25 -117 0 -178 -59 -195 -189 -1 -8
-24 -19 -50 -26 -145 -37 -200 -189 -114 -316 48 -71 164 -101 251 -65 l33 14
147 -147 c80 -80 146 -149 146 -152 0 -3 -29 -49 -65 -103 -111 -166 -185
-344 -220 -526 -9 -47 -18 -95 -21 -107 -3 -16 -23 -33 -62 -52 -75 -39 -116
-67 -105 -74 4 -2 40 -10 78 -18 39 -7 72 -14 74 -15 2 -2 5 -25 7 -51 9 -138
17 -204 29 -263 37 -173 118 -367 215 -513 l53 -78 -24 -27 c-13 -15 -77 -82
-143 -149 l-119 -121 -40 14 c-134 47 -268 -28 -283 -161 -13 -107 37 -183
142 -220 54 -19 58 -23 62 -55 10 -94 85 -160 180 -160 47 0 53 -2 47 -19 -4
-15 1 -19 32 -25 21 -3 50 -6 66 -6 26 0 27 -2 27 -51 l0 -51 43 6 44 7 12
-58 c17 -76 19 -78 46 -53 l23 21 15 -21 c12 -17 18 -19 41 -10 26 10 27 12
21 72 -3 35 -8 79 -10 99 -4 33 1 42 81 127 l86 92 753 0 753 0 108 -65 c119
-72 233 -119 334 -141 97 -20 242 -18 335 6 85 22 241 93 348 158 l67 42 591
0 591 0 59 -35 c89 -55 216 -111 304 -136 116 -33 290 -33 395 -1 85 27 164
65 266 128 l71 44 392 0 392 0 106 -70 c152 -100 268 -140 409 -140 142 0 301
55 488 168 l68 42 434 0 433 0 103 -80 c448 -350 756 -422 1168 -275 163 59
371 180 510 299 l65 55 393 3 394 3 29 33 c42 46 40 93 -5 138 l-34 34 -301 0
c-166 0 -301 2 -301 3 0 3 74 130 107 185 8 13 18 11 111 -23 10 -3 8 -14 -8
-44 -24 -47 -25 -70 -6 -77 14 -5 323 74 374 96 12 5 22 15 22 22 0 8 -58 71
-129 142 -103 103 -133 127 -152 124 -21 -3 -24 -9 -27 -50 -2 -27 -5 -48 -8
-48 -14 0 -84 42 -84 50 0 5 13 42 29 82 15 40 36 105 46 143 13 51 26 76 46
93 15 12 31 36 34 53 l7 31 28 -27 c43 -41 65 -31 65 32 l0 51 36 -29 c61 -48
90 -34 71 35 -6 20 -8 36 -6 36 3 0 27 -7 55 -16 39 -13 52 -14 64 -4 8 7 15
17 15 23 0 6 -49 59 -109 117 -97 95 -191 198 -199 219 -1 5 11 14 28 21 43
18 96 83 116 143 20 61 23 196 5 252 -39 119 -117 185 -222 185 -101 0 -204
-72 -231 -162 -9 -32 -15 -38 -40 -38 l-28 0 0 81 c0 44 -4 89 -10 99 -14 25
-71 43 -101 31 -42 -16 -53 -39 -59 -125 l-5 -81 -127 -3 c-147 -3 -138 -11
-113 98 75 321 239 569 510 770 88 65 186 130 198 130 3 0 7 -21 9 -47 2 -35
7 -49 19 -51 20 -4 249 244 249 269 0 9 -6 21 -12 26 -20 15 -367 105 -378 98
-17 -11 -11 -43 15 -74 l26 -30 -68 -20 c-102 -31 -249 -101 -344 -163 -307
-202 -505 -500 -586 -879 -18 -87 -26 -399 -11 -464 l7 -30 -247 0 -247 0 2
-35 c1 -19 11 -75 22 -125 27 -118 31 -318 7 -363 -18 -35 -62 -62 -100 -62
-35 0 -84 45 -96 88 -14 53 -14 1379 1 1437 6 24 24 55 41 72 39 37 115 40
149 6 21 -21 22 -31 23 -200 1 -183 -3 -206 -46 -265 -27 -37 -1 -42 247 -42
129 0 238 3 242 7 10 11 13 543 2 616 -27 185 -179 340 -384 391 -73 18 -220
20 -292 5 -194 -42 -351 -188 -403 -377 -11 -39 -21 -72 -22 -74 -2 -1 -3 100
-3 226 0 126 -4 232 -8 237 -12 12 -1096 14 -1119 2 -23 -13 -23 -31 2 -54 19
-17 57 -102 49 -110 -8 -8 -234 46 -238 57 -10 29 -81 94 -126 114 -114 54
-258 4 -322 -111 -6 -9 -55 -28 -125 -46 -159 -43 -169 -73 -35 -104 123 -29
135 -34 141 -61 10 -40 52 -100 91 -131 19 -15 35 -31 35 -34 0 -3 -24 -13
-53 -22 -110 -35 -233 -142 -282 -246 -16 -33 -31 -58 -35 -56 -3 2 -5 66 -4
142 3 213 -15 321 -73 436 -48 97 -146 178 -253 212 -46 14 -110 18 -377 22
-220 3 -329 1 -343 -7 -19 -10 -29 -50 -12 -50 31 0 59 -164 68 -400 10 -254
11 -1169 1 -1365 -9 -189 -33 -508 -47 -617 -11 -89 -25 -128 -69 -182 -50
-63 -41 -66 187 -66 l195 0 -44 -32 c-24 -17 -59 -44 -77 -60 l-33 -28 -478 0
c-401 0 -480 2 -490 14 -7 8 -42 34 -79 58 l-66 43 317 3 c289 2 317 4 326 20
9 18 14 436 5 485 -8 40 -39 35 -86 -14 -153 -157 -448 -117 -552 76 -20 39
-21 52 -22 375 0 186 4 343 9 354 8 16 17 18 72 14 115 -10 219 -78 282 -185
19 -33 31 -43 47 -41 21 3 21 6 23 289 1 157 0 295 -4 307 -9 37 -46 28 -71
-17 -54 -96 -218 -191 -330 -191 l-35 0 6 323 c6 358 10 382 73 455 19 23 60
53 92 69 50 25 68 28 152 28 84 0 101 -3 145 -27 69 -36 114 -87 136 -150 14
-44 22 -53 41 -53 l23 0 0 279 0 280 -28 7 c-15 4 -380 7 -812 6 -686 -2 -787
-4 -795 -17 -5 -8 -6 -39 -2 -70 14 -107 4 -405 -14 -388 -9 10 -43 243 -49
343 -4 60 -12 116 -18 124 -8 10 -26 12 -66 8 -30 -3 -67 -3 -82 0 -24 4 -28
9 -23 28 13 54 -30 140 -90 176 -31 19 -21 19 652 19 736 0 732 0 766 52 39
60 24 137 -33 171 -27 16 -170 17 -2173 17 l-2143 0 -30 -25z m2489 -72 c-13
-20 -27 -47 -30 -60 l-6 -23 -1173 0 c-1155 0 -1174 0 -1180 19 -3 11 -19 34
-35 52 -17 17 -27 35 -24 40 3 5 520 9 1239 9 l1234 0 -25 -37z m1828 25 c30
-24 31 -56 4 -83 l-25 -25 -726 0 c-602 0 -725 2 -725 14 0 7 -11 34 -25 60
l-24 46 752 0 c587 0 757 -3 769 -12z m-1589 -20 c34 -18 57 -70 57 -130 l0
-58 33 0 c88 0 159 -47 171 -115 14 -74 12 -75 -150 -75 -120 0 -146 -3 -150
-15 -4 -8 -1 -22 6 -30 11 -13 -9 -39 -135 -168 -82 -84 -159 -163 -172 -176
l-22 -25 -80 77 -79 77 184 179 184 178 -30 58 c-43 81 -42 142 3 191 45 49
120 63 180 32z m-2736 -38 c70 -42 82 -123 32 -216 l-31 -59 171 -165 171
-165 -78 -78 -79 -78 -159 166 -159 166 -45 -20 c-67 -31 -140 -28 -181 6 -57
48 -73 116 -42 180 21 46 64 71 134 79 l57 6 4 70 c3 64 7 73 36 99 27 24 41
29 85 29 34 0 63 -7 84 -20z m2468 -132 c3 -13 13 -40 22 -61 l17 -38 -95 -95
c-52 -53 -128 -127 -171 -165 l-76 -70 -64 45 c-152 105 -341 185 -542 228
-143 30 -407 30 -552 0 -202 -43 -389 -121 -540 -224 l-81 -56 -154 153 -154
153 22 54 c12 29 23 63 23 76 l0 22 1169 0 1170 0 6 -22z m8138 -209 c42 -12
77 -25 77 -28 -1 -3 -28 -35 -60 -71 -56 -60 -60 -62 -60 -37 0 43 -35 51 -90
19 -346 -196 -598 -479 -706 -792 -10 -30 -23 -58 -28 -61 -5 -4 -5 -12 -1
-19 6 -9 4 -11 -5 -5 -10 6 -12 3 -8 -13 4 -12 2 -22 -4 -22 -5 0 -6 -5 -2
-12 4 -6 3 -8 -4 -5 -5 4 -8 16 -5 27 4 15 0 20 -16 20 -12 0 -19 -4 -16 -10
8 -13 -1 -13 -26 3 -17 10 -23 10 -26 0 -3 -7 -9 -13 -14 -13 -6 0 -8 4 -5 9
3 5 -8 11 -25 13 -16 3 -33 0 -36 -6 -4 -5 -10 -1 -14 10 -7 17 -8 17 -8 2 -1
-10 -6 -18 -12 -18 -7 0 -8 7 -4 18 4 9 8 24 10 33 9 46 29 99 37 99 5 0 6 5
3 11 -11 17 99 229 166 320 163 221 413 393 687 472 97 28 109 36 92 67 -10
19 -10 21 7 16 10 -2 53 -15 96 -27z m-9114 0 c395 -56 771 -310 985 -667 49
-80 118 -243 111 -260 -3 -8 0 -10 7 -6 8 5 9 2 5 -9 -3 -9 -2 -19 3 -22 6 -4
10 -11 10 -16 0 -6 -4 -7 -10 -4 -5 3 -10 1 -10 -4 0 -7 -55 -11 -164 -11
-148 0 -165 -2 -169 -17 -2 -10 -3 -2 -2 17 2 19 1 29 -2 23 -4 -10 -9 -10
-25 1 -11 8 -25 13 -32 11 -6 -3 -22 19 -35 46 -118 252 -363 450 -650 526
-82 22 -117 26 -246 26 -129 0 -164 -4 -246 -26 -164 -43 -307 -119 -423 -225
-72 -66 -156 -168 -194 -235 -15 -26 -35 -50 -44 -53 -11 -3 -15 -13 -12 -29
2 -14 0 -25 -6 -25 -6 0 -8 -4 -5 -10 3 -6 -1 -7 -10 -4 -11 5 -21 -6 -36 -40
-21 -48 -31 -60 -22 -26 3 12 0 20 -6 20 -7 0 -10 4 -7 9 9 15 -6 16 -124 13
-90 -3 -110 -6 -110 -18 0 -9 -5 -12 -11 -8 -6 3 -16 0 -21 -7 -8 -11 -9 -10
-4 3 3 10 1 20 -4 23 -6 4 -10 -1 -10 -9 0 -9 -4 -16 -10 -16 -6 0 -6 9 0 26
14 36 12 43 -5 14 -19 -34 -19 -21 2 26 9 22 17 49 19 61 4 35 86 203 139 285
62 95 162 214 234 277 327 284 714 399 1140 340z m1696 -161 c13 -200 73 -461
109 -480 30 -16 42 8 62 127 14 79 19 158 19 283 l-1 172 193 0 c106 0 193 -1
193 -3 0 -2 -7 -48 -15 -103 -15 -107 -40 -427 -50 -669 -5 -96 -11 -153 -18
-157 -14 -9 -768 -11 -790 -2 -12 4 -15 29 -16 118 -1 62 -8 249 -16 416 -13
284 -16 306 -38 352 l-24 48 192 0 192 0 8 -102z m694 -15 c20 -76 34 -183 45
-363 8 -110 9 -1597 2 -1630 -3 -14 -8 -56 -11 -94 -12 -150 -68 -316 -106
-316 -15 0 -18 14 -23 98 -4 53 -9 117 -11 140 -26 266 -26 1557 0 1837 3 28
9 105 15 173 6 67 15 157 22 199 11 75 11 76 28 55 10 -12 27 -56 39 -99z
m1011 -49 l0 -166 -41 37 c-72 65 -118 79 -249 80 -110 0 -118 -1 -182 -33
-77 -38 -130 -92 -166 -171 -25 -53 -27 -65 -30 -256 -3 -135 -8 -202 -16
-207 -8 -6 -8 -8 2 -8 7 0 12 -14 11 -37 0 -31 -2 -34 -9 -18 l-9 20 0 -20
c-1 -15 -3 -17 -10 -7 -6 10 -31 13 -94 10 l-86 -3 -5 50 c-3 28 -10 160 -16
295 -13 315 -34 478 -75 583 -7 16 20 17 484 17 l491 0 0 -166z m1063 146
c122 -38 221 -158 252 -307 11 -50 15 -143 15 -342 0 -239 -2 -272 -15 -267
-8 3 -15 2 -15 -3 0 -4 -11 -6 -25 -3 -17 3 -25 0 -25 -9 0 -10 -3 -11 -8 -3
-8 14 -122 23 -122 11 0 -5 -4 -5 -10 -2 -5 3 -11 0 -12 -7 -1 -7 -5 116 -8
273 l-5 286 -30 48 c-22 35 -46 57 -89 81 -63 35 -170 60 -211 50 l-25 -6 0
-344 c0 -190 -3 -351 -6 -360 -5 -13 -26 -16 -124 -16 l-118 0 -1 153 c-3 323
-26 672 -50 755 l-10 32 289 0 c261 0 294 -2 353 -20z m2297 -140 l0 -160 -50
36 c-80 58 -149 77 -260 72 -76 -3 -106 -9 -152 -30 -79 -37 -140 -96 -174
-171 -28 -62 -28 -64 -34 -317 -4 -140 -7 -239 -9 -220 -2 29 -4 32 -11 15 -5
-11 -9 -15 -9 -10 -1 6 -34 8 -91 5 -59 -3 -91 -1 -94 6 -2 6 -5 82 -5 170 -3
309 -31 594 -69 708 l-19 56 489 0 488 0 0 -160z m734 145 c154 -27 281 -116
342 -240 l29 -60 3 -296 3 -297 -163 -1 -163 -2 0 219 c0 242 -3 252 -68 292
-39 24 -125 27 -166 6 -40 -21 -88 -79 -101 -123 -7 -21 -14 -125 -17 -231 -3
-113 -9 -188 -14 -180 -6 10 -9 10 -9 1 0 -10 -25 -13 -90 -13 -53 0 -90 -4
-90 -10 0 -5 -7 -10 -15 -10 -8 0 -15 5 -15 11 0 6 -9 9 -20 6 -11 -3 -20 0
-20 6 0 16 -17 -4 -23 -28 -3 -11 -5 115 -3 280 2 283 3 304 24 364 63 175
196 283 386 311 77 11 104 11 190 -5z m-6229 -69 c22 -16 32 -87 34 -250 1
-63 4 -125 6 -137 3 -12 7 -181 11 -375 8 -390 10 -373 -53 -334 -24 14 -33
27 -33 45 0 46 -31 178 -66 283 -41 126 -116 274 -190 377 l-55 76 158 164
c87 90 161 164 164 165 3 0 14 -6 24 -14z m4505 -98 c0 -7 4 -42 9 -78 13 -93
20 -208 26 -430 4 -188 4 -193 -10 -130 -40 176 -172 326 -331 377 -30 9 -54
20 -54 25 0 4 18 25 41 45 39 36 79 99 79 126 0 8 39 25 103 44 117 35 137 38
137 21z m846 -119 c71 -34 120 -88 139 -153 17 -59 36 -74 60 -50 13 14 15
-67 15 -783 0 -753 1 -803 20 -893 72 -352 358 -525 685 -415 133 44 249 133
319 243 14 23 38 77 53 119 28 77 28 81 30 363 1 157 3 287 3 290 0 3 16 -40
34 -95 56 -168 111 -275 205 -400 93 -123 217 -238 344 -319 31 -20 57 -39 57
-42 0 -12 -90 -141 -155 -222 l-66 -82 -786 0 -785 0 -91 58 -91 57 94 3 c52
1 100 8 107 14 10 8 13 67 13 259 0 231 -1 249 -18 258 -15 8 -26 3 -58 -31
-21 -22 -65 -53 -98 -69 -172 -82 -391 -18 -462 136 -23 49 -24 55 -24 389 l0
339 48 -6 c113 -13 251 -94 311 -181 18 -25 38 -46 44 -46 35 0 37 21 37 316
0 161 -3 299 -6 308 -13 33 -48 17 -79 -35 -38 -64 -103 -125 -162 -151 -24
-11 -78 -22 -119 -25 l-74 -6 0 334 c0 314 2 337 21 379 52 116 157 173 306
166 59 -3 95 -10 129 -27z m-2282 -18 c92 -51 87 -23 87 -566 0 -318 -4 -490
-12 -518 -20 -76 -105 -137 -191 -137 l-28 0 0 631 0 632 47 -7 c26 -3 69 -19
97 -35z m-4362 -66 c166 -35 319 -117 445 -238 79 -76 183 -213 183 -241 0
-10 -13 -10 -62 0 -116 24 -381 54 -578 65 -263 14 -561 1 -868 -37 -68 -9
-126 -13 -129 -10 -10 10 77 133 140 196 121 122 241 196 397 244 153 47 313
54 472 21z m-1101 -488 c-10 -9 -11 -8 -5 6 3 10 9 15 12 12 3 -3 0 -11 -7
-18z m6635 -19 c20 -39 22 -119 5 -171 -7 -21 -15 -36 -18 -33 -5 4 -10 236
-6 236 1 0 10 -15 19 -32z m-420 -89 c0 -87 -1 -99 -13 -83 -15 21 -17 121 -3
158 5 14 11 26 12 26 2 0 3 -46 4 -101z m-4341 13 c2 -17 0 -34 -5 -37 -6 -3
-7 1 -4 9 4 9 -1 18 -10 22 -9 3 -16 10 -16 16 0 5 5 6 11 2 7 -4 10 -1 7 7
-3 8 -10 13 -16 12 -6 -2 -9 4 -5 13 9 23 33 -4 38 -44z m-1910 38 c3 -5 1
-10 -4 -10 -6 0 -11 5 -11 10 0 6 2 10 4 10 3 0 8 -4 11 -10z m2278 -25 c-3
-9 -8 -14 -10 -11 -3 3 -2 9 2 15 9 16 15 13 8 -4z m-2283 -5 c0 -5 -5 -10
-11 -10 -5 0 -7 5 -4 10 3 6 8 10 11 10 2 0 4 -4 4 -10z m5897 -12 c-3 -8 -6
-5 -6 6 -1 11 2 17 5 13 3 -3 4 -12 1 -19z m1073 -1098 c-15 -255 -50 -389
-118 -462 -26 -28 -52 -37 -52 -18 0 18 -63 81 -108 107 l-45 26 7 101 c3 56
9 144 11 196 3 52 8 118 11 145 l5 50 47 -1 c62 -1 72 3 72 35 0 21 -31 181
-55 288 -5 20 -1 22 52 25 52 3 58 5 61 26 2 13 -8 41 -22 62 l-25 38 29 11
c27 9 29 12 20 36 -6 15 -22 42 -36 61 l-26 34 47 52 c63 71 120 190 127 267
9 91 7 -938 -2 -1079z m-5500 1066 c188 -24 356 -54 493 -87 156 -38 401 -119
390 -129 -16 -16 -362 -109 -405 -110 -3 0 -9 19 -13 43 -20 124 -95 171 -325
203 -243 33 -1032 27 -1300 -11 -198 -28 -296 -77 -333 -166 -12 -29 -27 -49
-36 -49 -16 0 -247 39 -376 63 l-70 13 60 27 c209 97 541 174 905 211 196 20
829 15 1010 -8z m585 14 c3 -5 1 -10 -4 -10 -6 0 -11 5 -11 10 0 6 2 10 4 10
3 0 8 -4 11 -10z m222 -12 c-3 -8 -6 -5 -6 6 -1 11 2 17 5 13 3 -3 4 -12 1
-19z m7953 -1 c13 -5 13 -6 -1 -6 -8 -1 -24 6 -35 15 -19 15 -19 15 1 6 11 -5
27 -12 35 -15z m-4194 -202 c19 -29 41 -59 49 -65 21 -18 19 -27 -20 -80 -42
-58 -45 -85 -9 -94 l25 -7 -26 -45 c-39 -67 -33 -78 46 -84 l66 -5 -45 -158
c-52 -186 -52 -187 43 -187 l62 0 2 -72 c2 -40 4 -84 6 -98 1 -14 6 -87 10
-162 l7 -138 -29 0 c-42 0 -146 -55 -182 -96 -35 -39 -41 -87 -14 -116 36 -40
166 -14 339 67 l90 42 43 -38 c71 -63 145 -94 216 -92 33 2 134 5 225 8 l165
5 -69 -41 c-39 -22 -82 -49 -97 -60 -26 -18 -48 -19 -447 -19 l-420 0 -57 49
c-129 109 -257 163 -395 165 -47 0 -108 -2 -136 -7 l-52 -7 -17 42 c-31 77
-45 189 -52 399 l-6 205 94 12 c195 26 364 106 442 208 60 79 67 116 68 383
l0 236 20 -49 c11 -27 35 -72 55 -101z m-4536 74 c197 -17 309 -48 355 -99 17
-19 20 -35 19 -114 -3 -217 -116 -475 -280 -641 -178 -181 -403 -263 -694
-252 -205 7 -358 56 -504 161 -218 156 -376 450 -376 701 0 101 17 132 92 169
86 42 252 67 518 79 148 7 773 4 870 -4z m986 -361 c-4 -139 -9 -275 -11 -303
-3 -27 -9 -111 -15 -185 -13 -172 -50 -468 -62 -499 -9 -24 -10 -23 -79 45
-39 38 -102 104 -141 146 l-70 77 55 83 c151 228 233 476 244 739 6 125 6 126
32 136 57 23 55 35 47 -239z m7224 82 c0 -83 2 -93 25 -115 30 -31 82 -33 119
-4 25 19 26 25 26 110 0 82 1 89 20 89 24 0 24 -1 3 -87 -22 -93 -23 -305 0
-390 9 -35 26 -80 36 -102 20 -39 20 -39 1 -110 -11 -39 -32 -101 -47 -138
l-27 -67 -49 55 c-126 136 -227 303 -291 482 -38 102 -76 271 -76 331 l0 36
130 0 130 0 0 -90z m-6781 -806 c23 -76 61 -193 86 -258 25 -65 45 -120 45
-121 0 -1 -37 -17 -82 -35 -46 -18 -116 -50 -156 -72 -40 -22 -76 -38 -79 -34
-3 3 -7 26 -9 50 -1 25 -5 50 -9 55 -3 6 27 11 77 13 l83 3 -2 55 c-11 313
-10 500 3 488 2 -2 21 -67 43 -144z m-2939 -185 c0 -4 -73 -79 -162 -167
l-161 -159 31 -63 c37 -73 40 -121 12 -168 -24 -40 -73 -62 -134 -62 -80 0
-134 72 -120 161 l6 36 -55 6 c-69 7 -112 29 -137 70 -39 63 -13 163 50 200
39 23 111 21 165 -4 l46 -22 156 162 156 162 74 -73 c40 -40 73 -76 73 -79z
m659 140 c26 -9 30 -15 25 -33 -18 -58 -24 -67 -42 -62 -9 2 -32 8 -50 11 -18
4 -32 10 -30 13 9 20 54 82 59 82 3 0 20 -5 38 -11z m652 -30 c23 -47 19 -55
-33 -64 -42 -8 -49 0 -52 57 -1 30 11 41 56 47 4 1 17 -18 29 -40z m1039 -252
c0 -4 -11 -13 -25 -19 -18 -8 -25 -18 -23 -32 3 -20 10 -21 185 -24 l182 -2
11 -41 c27 -101 -40 -179 -155 -179 -44 0 -45 0 -45 -33 0 -33 -1 -34 -69 -50
-38 -10 -99 -17 -135 -17 l-66 0 0 38 c0 22 12 58 31 92 l30 55 -174 171 -175
172 77 76 76 76 137 -137 c76 -76 138 -141 138 -146z m-1507 246 c14 -4 16
-12 11 -46 -4 -23 -8 -43 -9 -45 -3 -4 -127 16 -132 22 -2 2 1 23 8 45 l12 42
46 -6 c25 -4 54 -9 64 -12z m336 -20 c15 -52 14 -63 -6 -63 -10 0 -42 -3 -70
-6 l-53 -7 0 46 c0 51 5 54 107 66 7 0 17 -16 22 -36z m-173 -5 c-3 -13 -6
-33 -6 -45 0 -21 -5 -23 -50 -23 l-50 0 0 45 0 45 56 0 c54 0 56 -1 50 -22z
m-190 -140 c-3 -18 -11 -49 -16 -69 l-10 -38 -53 16 c-83 24 -83 25 -15 75 78
57 103 62 94 16z m344 -23 c44 -45 52 -57 40 -65 -18 -11 -90 -24 -96 -17 -9
9 -33 121 -28 129 11 17 32 5 84 -47z m-134 -15 c20 -85 25 -80 -82 -80 l-96
0 6 32 c3 18 11 49 17 70 l10 39 66 -3 67 -3 12 -55z m-927 21 c20 -16 57 -42
84 -59 l47 -30 -94 -86 -94 -86 -141 0 c-78 0 -141 3 -141 6 0 10 283 283 294
284 4 0 25 -13 45 -29z m2059 -252 c2 -5 -79 -9 -180 -9 l-183 0 -78 67 -78
66 48 27 c26 16 80 50 118 78 l70 49 140 -135 c77 -74 142 -139 143 -143z
m-1443 125 c83 -26 102 -28 250 -28 131 0 172 4 226 21 l66 20 43 -37 42 -36
-66 -61 c-117 -110 -264 -164 -389 -143 -105 17 -241 95 -332 190 l-40 42 40
34 c22 19 47 33 55 30 8 -2 56 -16 105 -32z m-220 -104 l29 -30 -65 0 -64 1
35 29 c19 17 35 30 35 30 1 0 14 -13 30 -30z m905 -15 c11 -13 8 -15 -15 -15
-23 0 -26 2 -15 15 7 8 14 15 15 15 1 0 8 -7 15 -15z m2175 -5 c18 -5 -27 -8
-110 -7 -88 0 -125 3 -100 7 53 10 173 10 210 0z m-3735 -234 c-8 -8 -28 -18
-44 -22 -26 -6 -27 -5 -17 15 8 15 21 21 43 21 28 0 30 -2 18 -14z m9416 -12
c-67 -46 -188 -102 -271 -126 -114 -32 -281 -32 -380 1 -68 23 -211 90 -277
131 l-33 20 500 0 500 0 -39 -26z"/>
<path d="M897 2651 c-4 -17 -3 -21 5 -13 5 5 8 16 6 23 -3 8 -7 3 -11 -10z"/>
<path d="M621 2634 c0 -11 3 -14 6 -6 3 7 2 16 -1 19 -3 4 -6 -2 -5 -13z"/>
<path d="M1354 2239 c-70 -27 -128 -79 -161 -147 -23 -47 -28 -70 -28 -132 1
-124 56 -214 163 -267 73 -36 181 -39 253 -6 60 27 125 92 152 152 33 71 30
179 -6 253 -68 137 -231 202 -373 147z"/>
<path d="M2204 2239 c-241 -92 -258 -432 -27 -545 75 -37 181 -40 254 -7 60
27 125 92 152 152 33 71 30 179 -6 253 -68 137 -231 202 -373 147z"/>
<path d="M1835 1691 c-62 -28 -85 -86 -59 -151 38 -94 166 -99 215 -8 31 57 1
137 -61 162 -49 20 -46 20 -95 -3z"/>
<path d="M11510 630 c0 -5 14 -10 30 -10 l30 0 0 -75 c0 -43 4 -75 10 -75 6 0
10 32 10 75 l0 75 30 0 c17 0 30 5 30 10 0 6 -30 10 -70 10 -40 0 -70 -4 -70
-10z"/>
<path d="M11680 555 c0 -50 4 -85 10 -85 6 0 10 30 11 68 l1 67 22 -64 c12
-36 27 -66 32 -68 5 -2 21 30 34 69 l25 73 3 -72 c4 -102 22 -92 22 13 0 74
-2 85 -17 82 -10 -2 -24 -26 -37 -65 -12 -34 -24 -64 -27 -67 -3 -4 -11 13
-18 36 -20 72 -33 98 -47 98 -11 0 -14 -19 -14 -85z"/>
</g>
</svg>
